<svg width="64" height="64" viewBox="0 0 64 64" fill="none" xmlns="http://www.w3.org/2000/svg">
  <!-- Stadium Background -->
  <rect width="64" height="64" rx="12" fill="url(#stadiumGradient)"/>
  
  <!-- Stadium Field -->
  <ellipse cx="32" cy="40" rx="24" ry="12" fill="url(#fieldGradient)" opacity="0.3"/>
  
  <!-- Stadium Structure -->
  <path d="M8 20 L8 44 L56 44 L56 20 L48 16 L16 16 Z" fill="url(#structureGradient)" opacity="0.4"/>
  
  <!-- Stadium Lights -->
  <circle cx="16" cy="12" r="2" fill="#FFD700"/>
  <circle cx="32" cy="10" r="2" fill="#FFD700"/>
  <circle cx="48" cy="12" r="2" fill="#FFD700"/>
  
  <!-- Betting Chips -->
  <circle cx="20" cy="28" r="4" fill="url(#chipGradient1)"/>
  <circle cx="44" cy="28" r="4" fill="url(#chipGradient2)"/>
  <circle cx="32" cy="32" r="4" fill="url(#chipGradient3)"/>
  
  <!-- Shield for Security -->
  <path d="M32 8 L36 12 L36 20 L32 24 L28 20 L28 12 Z" fill="url(#shieldGradient)"/>
  
  <!-- Lock Icon -->
  <rect x="30" y="14" width="4" height="3" rx="1" fill="#4A90E2"/>
  <path d="M30 14 L30 12 Q30 10 32 10 Q34 10 34 12 L34 14" stroke="#4A90E2" stroke-width="1" fill="none"/>
  
  <!-- Gradients -->
  <defs>
    <linearGradient id="stadiumGradient" x1="0%" y1="0%" x2="100%" y2="100%">
      <stop offset="0%" stopColor="#1a1a2e" stopOpacity="1" />
      <stop offset="100%" stopColor="#16213e" stopOpacity="1" />
    </linearGradient>
    
    <linearGradient id="fieldGradient" x1="0%" y1="0%" x2="100%" y2="100%">
      <stop offset="0%" stopColor="#0f3460" stopOpacity="1" />
      <stop offset="100%" stopColor="#16537e" stopOpacity="1" />
    </linearGradient>
    
    <linearGradient id="structureGradient" x1="0%" y1="0%" x2="100%" y2="100%">
      <stop offset="0%" stopColor="#2c3e50" stopOpacity="1" />
      <stop offset="100%" stopColor="#34495e" stopOpacity="1" />
    </linearGradient>
    
    <linearGradient id="chipGradient1" x1="0%" y1="0%" x2="100%" y2="100%">
      <stop offset="0%" stopColor="#e74c3c" stopOpacity="1" />
      <stop offset="100%" stopColor="#c0392b" stopOpacity="1" />
    </linearGradient>
    
    <linearGradient id="chipGradient2" x1="0%" y1="0%" x2="100%" y2="100%">
      <stop offset="0%" stopColor="#27ae60" stopOpacity="1" />
      <stop offset="100%" stopColor="#229954" stopOpacity="1" />
    </linearGradient>
    
    <linearGradient id="chipGradient3" x1="0%" y1="0%" x2="100%" y2="100%">
      <stop offset="0%" stopColor="#f39c12" stopOpacity="1" />
      <stop offset="100%" stopColor="#e67e22" stopOpacity="1" />
    </linearGradient>
    
    <linearGradient id="shieldGradient" x1="0%" y1="0%" x2="100%" y2="100%">
      <stop offset="0%" stopColor="#4A90E2" stopOpacity="1" />
      <stop offset="100%" stopColor="#357ABD" stopOpacity="1" />
    </linearGradient>
  </defs>
</svg>
