<svg width="64" height="64" viewBox="0 0 64 64" fill="none" xmlns="http://www.w3.org/2000/svg">
  <!-- Stadium Background -->
  <rect width="64" height="64" rx="12" fill="#1a1a2e"/>
  
  <!-- Stadium Field -->
  <ellipse cx="32" cy="40" rx="24" ry="12" fill="#0f3460" opacity="0.3"/>
  
  <!-- Stadium Structure -->
  <path d="M8 20 L8 44 L56 44 L56 20 L48 16 L16 16 Z" fill="#2c3e50" opacity="0.4"/>
  
  <!-- Stadium Lights -->
  <circle cx="16" cy="12" r="2" fill="#FFD700"/>
  <circle cx="32" cy="10" r="2" fill="#FFD700"/>
  <circle cx="48" cy="12" r="2" fill="#FFD700"/>
  
  <!-- Betting Chips -->
  <circle cx="20" cy="28" r="4" fill="#e74c3c"/>
  <circle cx="44" cy="28" r="4" fill="#27ae60"/>
  <circle cx="32" cy="32" r="4" fill="#f39c12"/>
  
  <!-- Shield for Security -->
  <path d="M32 8 L36 12 L36 20 L32 24 L28 20 L28 12 Z" fill="#4A90E2"/>
  
  <!-- Lock Icon -->
  <rect x="30" y="14" width="4" height="3" rx="1" fill="#357ABD"/>
  <path d="M30 14 L30 12 Q30 10 32 10 Q34 10 34 12 L34 14" stroke="#357ABD" strokeWidth="1" fill="none"/>
</svg>
